control3min_grf.mot
version=1
nRows=20
nColumns 19
inDegrees=yes
endheader
time	1_ground_force_vx	1_ground_force_vy	1_ground_force_vz	1_ground_force_px	1_ground_force_py	1_ground_force_pz	1_ground_torque_x	1_ground_torque_y	1_ground_torque_z	2_ground_force_vx	2_ground_force_vy	2_ground_force_vz	2_ground_force_px	2_ground_force_py	2_ground_force_pz	2_ground_torque_x	2_ground_torque_y	2_ground_torque_z
            3.751500	          -17.705391	          696.815889	          -60.572192	           -0.221270	            0.006158	           -0.389721	           -0.085270	            3.355905	           -0.291719	          -14.881701	          875.453122	           91.120175	           -0.206520	            0.005703	           -0.687953	            0.048867	           -2.874694	           -0.299208
            3.752000	          -17.197871	          690.863454	          -59.727686	           -0.221267	            0.006158	           -0.389678	           -0.079522	            3.194505	           -0.276177	          -14.013415	          868.460752	           90.484775	           -0.206486	            0.005703	           -0.687949	            0.046438	           -2.877909	           -0.299849
            3.752500	          -16.826492	          682.926330	          -58.478641	           -0.221222	            0.006159	           -0.389867	           -0.077885	            3.161058	           -0.270680	          -13.336536	          862.572717	           89.806477	           -0.206385	            0.005704	           -0.687894	            0.043170	           -2.792149	           -0.290704
            3.753000	          -16.272604	          676.612646	          -57.452377	           -0.221034	            0.006158	           -0.389671	           -0.078808	            3.276825	           -0.278241	          -12.984510	          855.764575	           88.608831	           -0.206399	            0.005703	           -0.687878	            0.039838	           -2.625612	           -0.271865
            3.753500	          -15.673070	          670.119068	          -56.518705	           -0.220819	            0.006159	           -0.389763	           -0.077381	            3.308521	           -0.279045	          -12.584284	          848.588153	           87.456772	           -0.206233	            0.005703	           -0.687708	            0.038125	           -2.570849	           -0.264956
            3.754000	          -14.889430	          662.723184	          -55.360077	           -0.220771	            0.006159	           -0.389797	           -0.074877	            3.332760	           -0.278400	          -12.046750	          842.332333	           86.495651	           -0.206120	            0.005705	           -0.687942	            0.035250	           -2.464750	           -0.253095
            3.754500	          -14.473708	          656.771049	          -54.561202	           -0.220765	            0.006158	           -0.389699	           -0.070441	            3.196381	           -0.265539	          -11.317704	          834.971342	           85.812076	           -0.206114	            0.005705	           -0.687986	            0.033491	           -2.470795	           -0.253930
            3.755000	          -13.782440	          650.637763	          -53.580360	           -0.220632	            0.006158	           -0.389564	           -0.063356	            2.990896	           -0.246302	          -10.730538	          827.978002	           85.129875	           -0.205939	            0.005705	           -0.687800	            0.031998	           -2.468964	           -0.253850
            3.755500	          -13.183133	          644.144578	          -52.738407	           -0.220542	            0.006157	           -0.389484	           -0.058458	            2.856326	           -0.233858	           -9.727060	          822.459600	           84.405816	           -0.205944	            0.005706	           -0.688102	            0.029468	           -2.491635	           -0.255707
            3.756000	          -12.675267	          636.930117	          -51.853459	           -0.220511	            0.006157	           -0.389439	           -0.057115	            2.870021	           -0.233653	           -9.048270	          816.019873	           83.537834	           -0.205961	            0.005706	           -0.688176	            0.026124	           -2.356025	           -0.241192
            3.756500	          -11.984437	          630.076872	          -51.104983	           -0.220173	            0.006158	           -0.389712	           -0.055076	            2.895602	           -0.234860	           -8.316772	          807.923871	           82.382350	           -0.205753	            0.005706	           -0.687952	            0.023579	           -2.290583	           -0.233566
            3.757000	          -11.522027	          624.483522	          -49.937830	           -0.220132	            0.006158	           -0.389514	           -0.055710	            3.019418	           -0.241453	           -7.920472	          801.851791	           81.375025	           -0.205704	            0.005707	           -0.688115	            0.021899	           -2.217048	           -0.224995
            3.757500	          -11.013918	          617.809359	          -48.912998	           -0.220058	            0.006158	           -0.389490	           -0.052750	            2.958912	           -0.234262	           -7.564437	          793.938637	           80.220358	           -0.205646	            0.005706	           -0.687895	            0.019920	           -2.090698	           -0.211246
            3.758000	          -10.276382	          610.594155	          -47.845195	           -0.220063	            0.006158	           -0.389638	           -0.046705	            2.775064	           -0.217450	           -6.649342	          786.946771	           79.491082	           -0.205454	            0.005707	           -0.687819	            0.017915	           -2.120184	           -0.214164
            3.758500	           -9.676812	          602.658845	          -47.009419	           -0.220035	            0.006159	           -0.389843	           -0.040931	            2.549126	           -0.198840	           -6.061552	          779.769686	           78.714368	           -0.205456	            0.005707	           -0.687827	            0.016028	           -2.061845	           -0.208134
            3.759000	           -9.491086	          597.248490	          -46.482792	           -0.219982	            0.006158	           -0.389606	           -0.038368	            2.414414	           -0.187910	           -5.525244	          773.881311	           77.989209	           -0.205479	            0.005707	           -0.687811	            0.014324	           -2.006308	           -0.202189
            3.759500	           -8.707839	          590.754358	          -45.412011	           -0.219742	            0.006158	           -0.389508	           -0.036513	            2.477111	           -0.190419	           -4.466920	          766.153101	           77.304180	           -0.205240	            0.005708	           -0.687887	            0.011361	           -1.948653	           -0.196617
            3.760000	           -8.200658	          584.802512	          -44.705076	           -0.219814	            0.006157	           -0.389247	           -0.035904	            2.560403	           -0.195729	           -4.019098	          758.792098	           76.339157	           -0.205286	            0.005707	           -0.687661	            0.009947	           -1.877879	           -0.188926
            3.760500	           -7.692939	          577.768543	          -43.865214	           -0.219606	            0.006158	           -0.389547	           -0.034869	            2.618762	           -0.198821	           -3.293643	          752.353925	           75.048794	           -0.205237	            0.005707	           -0.687761	            0.008060	           -1.841064	           -0.183650
            3.761000	           -7.047286	          571.634977	          -42.792545	           -0.219430	            0.006157	           -0.389357	           -0.030946	            2.510166	           -0.187911	           -2.946104	          746.833490	           74.231173	           -0.205148	            0.005709	           -0.688116	            0.006990	           -1.771883	           -0.176115
